<svg id="Layer_1" data-name="Layer 1" xmlns="http://www.w3.org/2000/svg" viewBox="0 0 194.66 230.82"><path d="M0,.3C0,.4.9,2.8,2,5.7c1.5,4,2.3,10.3,3.4,28,1.6,25.2,2.8,30.5,9.1,40a48.64,48.64,0,0,0,9.1,9.7c5.4,4.2,30.6,18,32.9,18.1,1.7,0,7.5,7.1,7.5,9.1,0,1.1-1.8,5-4,8.8a54.6,54.6,0,0,0-4,7.5c0,.3,3.8,3.9,8.5,7.9,7,6,8.5,7.9,8.5,10.2,0,1.6-.4,3.1-.8,3.4-1.3.8-6.3-2.2-10.3-6-1.9-1.9-3.8-3.2-4.1-2.9-1.6,1.7,1.6,9.2,5.9,13.8l4.6,4.9-.7,6.6c-.3,3.7-.9,8.3-1.2,10.2-.5,3.2,0,4.2,6,11.4l6.6,8v14.1c0,16,.5,17.5,7.4,20.6,4.8,2.2,15.7,2.5,21.8.7,7-2.1,7.8-4.1,7.8-20.2V195.5l7-8.9c3.9-4.8,7-9.1,7-9.6a37.7,37.7,0,0,0-1.5-5,28.06,28.06,0,0,1-1.5-7.2c0-3.5,3-9.5,6-12.3a15,15,0,0,0,5-11.2v-3.8l-2.6,3.3c-2.2,2.8-9.9,8.2-11.7,8.2-.4,0-.7-1.5-.7-3.4,0-3.3,2.4-6,13.8-15.9L140,127l-4.1-7.5c-3.1-5.8-3.9-8.2-3.4-10.2.8-3.5,4.1-8,5.7-8,.7,0,7.6-3.3,15.3-7.3,19.9-10.5,27.4-17.9,32.6-32.6,1.8-4.9,2.3-9.5,2.9-26.4.8-19.6,1.9-27.3,4.9-32.9,1.1-2,1.1-2.2-.6-1.3C187.5,4,183,13.2,180,28c-4.5,22.3-7.7,30.5-15.2,38.7-5.4,5.7-10.8,8.8-18.8,10.8a80.79,80.79,0,0,0-13.7,5.2l-7.2,3.6-3.8-3.4A84.44,84.44,0,0,0,111,75.5c-5.7-3.5-7.1-3.9-13-3.9-7.5,0-9.4.9-23.8,11.5L70,86.2l-7.3-3.5a125.17,125.17,0,0,0-15.7-6c-4.7-1.5-10.3-4-12.6-5.6-8.4-6.2-14-17.8-18.8-38.7C12.2,17.6,8.2,6.1,5.3,2.8,4.2,1.6,0-.4,0,.3Z" transform="translate(0 -0.16)"/></svg>