<svg xmlns="http://www.w3.org/2000/svg" viewBox="0 0 494.61 688.6"><defs><style>.cls-1{fill:#1c1c1c;}.cls-2{fill:#d5d5d5;}.cls-3{fill:#c6c6c6;}.cls-4{fill:#8d8d8d;}.cls-5{fill:#a1a1a1;}</style></defs><g id="Layer_2" data-name="Layer 2"><g id="Layer_1-2" data-name="Layer 1"><path class="cls-1" d="M113.43,194.61c-28.6-71,2.84-140.33,53.48-172.56,53-33.7,120.77-28.34,168.52,13.12,38.08,33.07,69.2,108.42,25.27,180,3.08,1.32,6.09,2.64,9.13,3.9,20.17,8.42,40.06,17.32,57.48,30.89,22.54,17.54,34.25,40.7,36.22,69,1.91,27.39-4,53.67-11.28,79.76-1.35,4.81-4.64,10.09-3.57,14.27,1,4,6.61,6.76,10.12,10.15,26.35,25.51,37.23,57.21,35.66,93.16-1.7,39-17.85,70.26-52.16,90.73-3.12,1.87-3.79,3.85-3.21,7.29a77.75,77.75,0,0,1-1,32.74c-6.33,24.44-25.77,40.17-52.17,41.07-21.14.73-42.32.34-63.48.35q-116.75,0-233.48,0c-12.42,0-24.32-2.06-34.86-8.86C33.32,666.25,27.24,646.24,30,622.85c2.2-18.68,4.94-37.31,7.74-55.92.51-3.46-.53-5.53-2.75-7.87-22.61-23.91-35-52-34.37-85.28.32-16.19,4.72-31.63,9.48-46.87,3.5-11.18,3-21-.74-32.52-16.39-50.1-12.19-98.08,20-141.45,19.45-26.19,46-43,76.1-54.73,2.32-.9,4.66-1.78,7-2.7C112.73,195.4,112.93,195.08,113.43,194.61Zm111,377.55A170.56,170.56,0,0,0,268.27,558c-9.24-2.68-18.44-4.73-27.63-6.79-42-9.38-83.64-19.73-122.79-38.11-25.54-12-49-26.89-67.18-49.07-1.92-2.36-3.9-4.67-6.47-7.74-2.52,11.3-4.08,21.54-1.64,32,1,10.18,5,19.32,10.35,27.84,10.69,16.9,25.66,29.26,43,38.77C136.45,577.19,179.68,580.51,224.42,572.16Zm172.09,32.05c-.87-7.1-1.82-14.2-2.57-21.31-.34-3.21-1.78-4.45-5.08-4.75-11.6-1-23.17-2.51-34.76-3.6-2.74-.26-5.86-.39-8.29.64-12.87,5.45-25.58,11.3-38.35,17-2,.84-4,1.61-6,2.53a266.21,266.21,0,0,1-104,25.84c-40.91,1.61-79.88-5.75-116.31-25-1.7-.89-3.42-1.73-6.27-3.17-1.59,15-3.49,29-4.39,43-.42,6.65,4.2,10.81,11.29,11.75a104.17,104.17,0,0,0,13.46.66q135.18.07,270.36.06a194,194,0,0,0,19.45-.63c9.95-1,14.75-6.19,14.35-16.27C399.07,622,397.52,613.14,396.51,604.21ZM149.64,173.14c3.79,7.7,6.57,16.13,11.54,23,22.11,30.43,52.07,45,89.94,42.21,22.6-1.66,42.14-10.49,58.63-25.87,18.09-16.87,29-37.63,31.31-62.35,2.35-25.63-3.54-49.23-19.63-69.82-17.65-23.19-40.89-36.32-70-38.9-6-.09-12-.77-17.86-.15C201,44.63,175.67,60,158.26,88c-3.72,8.31-8.41,16.34-11,25C141.37,133.14,141.73,153.37,149.64,173.14Zm18.8,85.15c-9.85-8.38-19.64-16.85-29.64-25.06a7.06,7.06,0,0,0-5.59-1.29,186.34,186.34,0,0,0-18.36,6.4C64.2,259.22,37.94,299.22,41.53,351.07c1.67,24.11,9.35,46.23,25.9,64.58,3.26,3.55,6.33,7.3,9.81,10.62,21.25,20.28,46.21,34.94,72.82,46.77C233.65,510.19,322,528.19,412.5,537.1c7.07.7,7,.46,8,7.63,1.07,8.32,2.23,16.63,3.57,26.51,4.94-4.41,9.11-7.46,12.48-11.24,21.56-24.16,23.59-65.67,4.86-94.3-10-15.26-23.76-24-42.05-26.47C350.92,432.71,302.88,424,255.77,411c-17-4.68-33.35-11.41-49.87-17.56-6.71-2.5-11.34-7.54-15.18-13.8-17.57-28.64-28.83-59.59-35-92.49-.47-2.48-.48-5-.7-7.57l1.71-.75,11.82,14.34c1.5,2.38,2.89,4.84,4.52,7.13,15.71,22,34.29,41.41,53.37,60.45,4.55,4.53,9.78,6.7,15.71,7.79a5.88,5.88,0,0,0,4.47-1.1c5.72-5.29,11.2-10.84,16.76-16.3q21.81-26,43.6-52.07a112.38,112.38,0,0,1,7.91-8.95c2.17-2.07,4.53-1.93,4.67,1.72a33.8,33.8,0,0,1-.82,8.91c-6.23,26.94-15.32,52.76-30.32,76.23a26.91,26.91,0,0,0-1.39,3c3.21.79,6.08,1.53,9,2.19,35.73,8.22,71.65,15.38,108.11,19.59,3.17.37,4.85-.16,5.81-3.51,6-21,11.67-42.06,13.19-64,1.73-24.94-6.69-44.77-28.75-57.81a152.75,152.75,0,0,0-14.89-8.16c-14.27-6.43-28.74-12.42-43-18.83-3.62-1.63-6.09-1.4-9.38,1.08-30.26,22.83-64.34,32-102,27.63C204.7,275.81,186,268.59,168.44,258.29Z"/><path class="cls-2" d="M168.55,293.17l-11.82-14.34-1.71.75c.22,2.53.23,5.09.7,7.57,6.17,32.9,17.43,63.85,35,92.49,3.84,6.26,8.47,11.3,15.18,13.8,16.52,6.15,32.92,12.88,49.87,17.56,47.11,13,95.15,21.71,143.55,28.23,18.29,2.46,32.06,11.21,42.05,26.47,18.73,28.63,16.7,70.14-4.86,94.3-3.37,3.78-7.54,6.83-12.48,11.24-1.34-9.88-2.5-18.19-3.57-26.51-.92-7.17-.89-6.93-8-7.63C322,528.19,233.65,510.19,150.06,473c-26.61-11.83-51.57-26.49-72.82-46.77-3.48-3.32-6.55-7.07-9.81-10.62-.33-7.64-.85-15.28-1-22.93-.53-33.69,13-61.73,35.16-86.13,18.88-20.76,41.76-36,66.81-48.3,17.59,10.3,36.26,17.52,56.63,19.88,37.66,4.35,71.74-4.8,102-27.63,3.29-2.48,5.76-2.71,9.38-1.08,14.28,6.41,28.75,12.4,43,18.83a152.75,152.75,0,0,1,14.89,8.16c22.06,13,30.48,32.87,28.75,57.81-1.52,21.93-7.2,43-13.19,64-1,3.35-2.64,3.88-5.81,3.51-36.46-4.21-72.38-11.37-108.11-19.59-2.89-.66-5.76-1.4-9-2.19a26.91,26.91,0,0,1,1.39-3c15-23.47,24.09-49.29,30.32-76.23a33.8,33.8,0,0,0,.82-8.91c-.14-3.65-2.5-3.79-4.67-1.72a112.38,112.38,0,0,0-7.91,8.95q-21.81,26-43.6,52.07c-1.73-.51-3.67-.69-5.17-1.59-22.75-13.67-45.52-27.3-68.1-41.25C182.65,303.7,175.72,298.24,168.55,293.17Z"/><path class="cls-3" d="M251.44,41.37c29.1,2.58,52.34,15.71,70,38.9,1.34,7.69,3.46,15.35,3.88,23.1,1.64,30.62-8.42,56.73-30.56,78.34-32,31.2-84,36.69-121.17,11.71-8.63-5.8-16-13.47-23.94-20.28-7.91-19.77-8.27-40-2.34-60.15,2.55-8.65,7.24-16.68,11-25,2.25,1.4,4.36,3.14,6.78,4.13,17.58,7.24,35.43,8.27,53.5,1.89,14.2-5,25.44-13.44,31.59-27.64C253.67,58.21,252.68,49.79,251.44,41.37Z"/><path class="cls-2" d="M396.51,604.21c1,8.93,2.56,17.83,2.9,26.78.4,10.08-4.4,15.27-14.35,16.27a194,194,0,0,1-19.45.63q-135.18,0-270.36-.06a104.17,104.17,0,0,1-13.46-.66c-7.09-.94-11.71-5.1-11.29-11.75.9-14,2.8-28,4.39-43,2.85,1.44,4.57,2.28,6.27,3.17,36.43,19.24,75.4,26.6,116.31,25a266.21,266.21,0,0,0,104-25.84c2-.92,4-1.69,6-2.53,1.81.2,3.63.34,5.42.6,19.5,2.86,39,5.82,58.5,8.57C379.73,602.54,388.13,603.27,396.51,604.21Z"/><path class="cls-4" d="M149.64,173.14c8,6.81,15.31,14.48,23.94,20.28,37.13,25,89.19,19.49,121.17-11.71C316.89,160.1,327,134,325.31,103.37c-.42-7.75-2.54-15.41-3.88-23.1,16.09,20.59,22,44.19,19.63,69.82-2.27,24.72-13.22,45.48-31.31,62.35-16.49,15.38-36,24.21-58.63,25.87-37.87,2.78-67.83-11.78-89.94-42.21C156.21,189.27,153.43,180.84,149.64,173.14Z"/><path class="cls-5" d="M42.56,488.29c-2.44-10.47-.88-20.71,1.64-32,2.57,3.07,4.55,5.38,6.47,7.74,18.14,22.18,41.64,37.08,67.18,49.07,39.15,18.38,80.83,28.73,122.79,38.11,9.19,2.06,18.39,4.11,27.63,6.79a170.56,170.56,0,0,1-43.85,14.17,50.64,50.64,0,0,0-5.83-2.64c-21.59-6.72-43.46-12.64-64.75-20.19C113.51,535,75,517.1,42.56,488.29Z"/><path class="cls-2" d="M42.56,488.29c32.45,28.81,71,46.75,111.28,61,21.29,7.55,43.16,13.47,64.75,20.19a50.64,50.64,0,0,1,5.83,2.64c-44.74,8.35-88,5-128.54-17.26-17.31-9.51-32.28-21.87-43-38.77C47.52,507.61,43.58,498.47,42.56,488.29Z"/><path class="cls-5" d="M168.55,293.17c7.17,5.07,14.1,10.53,21.56,15.13,22.58,13.95,45.35,27.58,68.1,41.25,1.5.9,3.44,1.08,5.17,1.59-5.56,5.46-11,11-16.76,16.3a5.88,5.88,0,0,1-4.47,1.1c-5.93-1.09-11.16-3.26-15.71-7.79-19.08-19-37.66-38.47-53.37-60.45C171.44,298,170.05,295.55,168.55,293.17Z"/><path class="cls-5" d="M396.51,604.21c-8.38-.94-16.78-1.67-25.13-2.85-19.51-2.75-39-5.71-58.5-8.57-1.79-.26-3.61-.4-5.42-.6,12.77-5.7,25.48-11.55,38.35-17,2.43-1,5.55-.9,8.29-.64,11.59,1.09,23.16,2.57,34.76,3.6,3.3.3,4.74,1.54,5.08,4.75C394.69,590,395.64,597.11,396.51,604.21Z"/></g></g></svg>